# xmcd
#
# Track frame offsets:
#	150
#	17721
#	31450
#	42363
#	71436
#	86770
#	100931
#	105671
#	118949
#	127963
#	130686
#	147015
#	176104
#	207156
#
# Disc length: 2907 seconds
#
# Revision: 1
# Processed by: cddbd v1.5.2PL0 Copyright (c) Steve Scherf et al.
# Submitted via: audiograbber 1.83.01
#
DISCID=c20b590e
DTITLE=John Sebastian and Paul Butterfield - Blues Harmonica Disc 2
DYEAR=1982
DGENRE=Training
TTITLE0=Hand Positian - Tremolo
TTITLE1=Developing Attack
TTITLE2=Getting That 'Growl'
TTITLE3=Minor Chords
TTITLE4=G-Em-C-D7 Chord Progression Played
TTITLE5=Various Harp Techniques Performed
TTITLE6=Rhythm Harp Playing
TTITLE7='Fox Chase' Rhythm
TTITLE8='Fox Chase' Rhythm Played in Waltz Time
TTITLE9=Chord and Note Technique
TTITLE10=Using Your Diaphram and Neck
TTITLE11=Tonguing Techniques
TTITLE12=Basic Blues Harp Theory
TTITLE13=Accompaniment
EXTD=
EXTT0=
EXTT1=
EXTT2=
EXTT3=
EXTT4=
EXTT5=
EXTT6=
EXTT7=
EXTT8=
EXTT9=
EXTT10=
EXTT11=
EXTT12=
EXTT13=
PLAYORDER=
